{
    "asset" : {
        "generator" : "Khronos glTF Blender I/O v1.4.40",
        "version" : "2.0"
    },
    "scene" : 0,
    "scenes" : [
        {
            "name" : "Scene",
            "nodes" : [
                0
            ]
        }
    ],
    "nodes" : [
        {
            "mesh" : 0,
            "name" : "Hotel(3star)",
            "rotation" : [
                0,
                -0.7071068286895752,
                0,
                0.7071068286895752
            ],
            "scale" : [
                0.05000000074505806,
                0.05000000074505806,
                0.05000000074505806
            ]
        }
    ],
    "materials" : [
        {
            "doubleSided" : true,
            "name" : "red",
            "pbrMetallicRoughness" : {
                "baseColorFactor" : [
                    0.31081274151802063,
                    0.01512112095952034,
                    0.017692049965262413,
                    1
                ],
                "metallicFactor" : 0,
                "roughnessFactor" : 0.5
            }
        },
        {
            "doubleSided" : true,
            "name" : "darkyellow",
            "pbrMetallicRoughness" : {
                "baseColorFactor" : [
                    0.4868963658809662,
                    0.33643975853919983,
                    0.12149902433156967,
                    1
                ],
                "metallicFactor" : 0,
                "roughnessFactor" : 0.5
            }
        },
        {
            "doubleSided" : true,
            "name" : "orange",
            "pbrMetallicRoughness" : {
                "baseColorFactor" : [
                    0.5070677995681763,
                    0.1138719767332077,
                    0,
                    1
                ],
                "metallicFactor" : 0,
                "roughnessFactor" : 0.5
            }
        },
        {
            "doubleSided" : true,
            "name" : "glass",
            "pbrMetallicRoughness" : {
                "baseColorFactor" : [
                    0.11953846365213394,
                    0.19461780786514282,
                    0.18447501957416534,
                    1
                ],
                "metallicFactor" : 0,
                "roughnessFactor" : 0.5
            }
        },
        {
            "doubleSided" : true,
            "name" : "gray2",
            "pbrMetallicRoughness" : {
                "baseColorFactor" : [
                    0.479320228099823,
                    0.3662526309490204,
                    0.2622506618499756,
                    1
                ],
                "metallicFactor" : 0,
                "roughnessFactor" : 0.5
            }
        },
        {
            "doubleSided" : true,
            "name" : "yellow",
            "pbrMetallicRoughness" : {
                "baseColorFactor" : [
                    0.6859562993049622,
                    0.5827935338020325,
                    0.060640424489974976,
                    1
                ],
                "metallicFactor" : 0,
                "roughnessFactor" : 0.5
            }
        }
    ],
    "meshes" : [
        {
            "name" : "Cube.049",
            "primitives" : [
                {
                    "attributes" : {
                        "POSITION" : 0,
                        "NORMAL" : 1,
                        "TEXCOORD_0" : 2
                    },
                    "indices" : 3,
                    "material" : 0
                },
                {
                    "attributes" : {
                        "POSITION" : 4,
                        "NORMAL" : 5,
                        "TEXCOORD_0" : 6
                    },
                    "indices" : 7,
                    "material" : 1
                },
                {
                    "attributes" : {
                        "POSITION" : 8,
                        "NORMAL" : 9,
                        "TEXCOORD_0" : 10
                    },
                    "indices" : 11,
                    "material" : 2
                },
                {
                    "attributes" : {
                        "POSITION" : 12,
                        "NORMAL" : 13,
                        "TEXCOORD_0" : 14
                    },
                    "indices" : 15,
                    "material" : 3
                },
                {
                    "attributes" : {
                        "POSITION" : 16,
                        "NORMAL" : 17,
                        "TEXCOORD_0" : 18
                    },
                    "indices" : 19,
                    "material" : 4
                },
                {
                    "attributes" : {
                        "POSITION" : 20,
                        "NORMAL" : 21,
                        "TEXCOORD_0" : 22
                    },
                    "indices" : 23,
                    "material" : 5
                }
            ]
        }
    ],
    "accessors" : [
        {
            "bufferView" : 0,
            "componentType" : 5126,
            "count" : 5142,
            "max" : [
                6.583630561828613,
                19.130983352661133,
                9.078834533691406
            ],
            "min" : [
                -0.4663667678833008,
                0.8485949039459229,
                -9.125164985656738
            ],
            "type" : "VEC3"
        },
        {
            "bufferView" : 1,
            "componentType" : 5126,
            "count" : 5142,
            "type" : "VEC3"
        },
        {
            "bufferView" : 2,
            "componentType" : 5126,
            "count" : 5142,
            "type" : "VEC2"
        },
        {
            "bufferView" : 3,
            "componentType" : 5123,
            "count" : 7062,
            "type" : "SCALAR"
        },
        {
            "bufferView" : 4,
            "componentType" : 5126,
            "count" : 1582,
            "max" : [
                6.512797832489014,
                24.577510833740234,
                9.11529541015625
            ],
            "min" : [
                -6.511733055114746,
                0.8372409343719482,
                -9.115294456481934
            ],
            "type" : "VEC3"
        },
        {
            "bufferView" : 5,
            "componentType" : 5126,
            "count" : 1582,
            "type" : "VEC3"
        },
        {
            "bufferView" : 6,
            "componentType" : 5126,
            "count" : 1582,
            "type" : "VEC2"
        },
        {
            "bufferView" : 7,
            "componentType" : 5123,
            "count" : 1926,
            "type" : "SCALAR"
        },
        {
            "bufferView" : 8,
            "componentType" : 5126,
            "count" : 297,
            "max" : [
                6.512797832489014,
                24.577510833740234,
                9.11529541015625
            ],
            "min" : [
                -6.511733055114746,
                0.02420210838317871,
                -9.115294456481934
            ],
            "type" : "VEC3"
        },
        {
            "bufferView" : 9,
            "componentType" : 5126,
            "count" : 297,
            "type" : "VEC3"
        },
        {
            "bufferView" : 10,
            "componentType" : 5126,
            "count" : 297,
            "type" : "VEC2"
        },
        {
            "bufferView" : 11,
            "componentType" : 5123,
            "count" : 408,
            "type" : "SCALAR"
        },
        {
            "bufferView" : 12,
            "componentType" : 5126,
            "count" : 886,
            "max" : [
                6.033738136291504,
                23.67913055419922,
                8.767346382141113
            ],
            "min" : [
                -5.232627868652344,
                0.9054906368255615,
                -8.752975463867188
            ],
            "type" : "VEC3"
        },
        {
            "bufferView" : 13,
            "componentType" : 5126,
            "count" : 886,
            "type" : "VEC3"
        },
        {
            "bufferView" : 14,
            "componentType" : 5126,
            "count" : 886,
            "type" : "VEC2"
        },
        {
            "bufferView" : 15,
            "componentType" : 5123,
            "count" : 1044,
            "type" : "SCALAR"
        },
        {
            "bufferView" : 16,
            "componentType" : 5126,
            "count" : 10106,
            "max" : [
                9.026834487915039,
                23.67913055419922,
                8.879953384399414
            ],
            "min" : [
                -5.423986434936523,
                0.02420210838317871,
                -8.92697811126709
            ],
            "type" : "VEC3"
        },
        {
            "bufferView" : 17,
            "componentType" : 5126,
            "count" : 10106,
            "type" : "VEC3"
        },
        {
            "bufferView" : 18,
            "componentType" : 5126,
            "count" : 10106,
            "type" : "VEC2"
        },
        {
            "bufferView" : 19,
            "componentType" : 5123,
            "count" : 11712,
            "type" : "SCALAR"
        },
        {
            "bufferView" : 20,
            "componentType" : 5126,
            "count" : 306,
            "max" : [
                5.051087379455566,
                27.476215362548828,
                6.031440734863281
            ],
            "min" : [
                4.838057994842529,
                24.47101593017578,
                -6.400297164916992
            ],
            "type" : "VEC3"
        },
        {
            "bufferView" : 21,
            "componentType" : 5126,
            "count" : 306,
            "type" : "VEC3"
        },
        {
            "bufferView" : 22,
            "componentType" : 5126,
            "count" : 306,
            "type" : "VEC2"
        },
        {
            "bufferView" : 23,
            "componentType" : 5123,
            "count" : 324,
            "type" : "SCALAR"
        }
    ],
    "bufferViews" : [
        {
            "buffer" : 0,
            "byteLength" : 61704,
            "byteOffset" : 0
        },
        {
            "buffer" : 0,
            "byteLength" : 61704,
            "byteOffset" : 61704
        },
        {
            "buffer" : 0,
            "byteLength" : 41136,
            "byteOffset" : 123408
        },
        {
            "buffer" : 0,
            "byteLength" : 14124,
            "byteOffset" : 164544
        },
        {
            "buffer" : 0,
            "byteLength" : 18984,
            "byteOffset" : 178668
        },
        {
            "buffer" : 0,
            "byteLength" : 18984,
            "byteOffset" : 197652
        },
        {
            "buffer" : 0,
            "byteLength" : 12656,
            "byteOffset" : 216636
        },
        {
            "buffer" : 0,
            "byteLength" : 3852,
            "byteOffset" : 229292
        },
        {
            "buffer" : 0,
            "byteLength" : 3564,
            "byteOffset" : 233144
        },
        {
            "buffer" : 0,
            "byteLength" : 3564,
            "byteOffset" : 236708
        },
        {
            "buffer" : 0,
            "byteLength" : 2376,
            "byteOffset" : 240272
        },
        {
            "buffer" : 0,
            "byteLength" : 816,
            "byteOffset" : 242648
        },
        {
            "buffer" : 0,
            "byteLength" : 10632,
            "byteOffset" : 243464
        },
        {
            "buffer" : 0,
            "byteLength" : 10632,
            "byteOffset" : 254096
        },
        {
            "buffer" : 0,
            "byteLength" : 7088,
            "byteOffset" : 264728
        },
        {
            "buffer" : 0,
            "byteLength" : 2088,
            "byteOffset" : 271816
        },
        {
            "buffer" : 0,
            "byteLength" : 121272,
            "byteOffset" : 273904
        },
        {
            "buffer" : 0,
            "byteLength" : 121272,
            "byteOffset" : 395176
        },
        {
            "buffer" : 0,
            "byteLength" : 80848,
            "byteOffset" : 516448
        },
        {
            "buffer" : 0,
            "byteLength" : 23424,
            "byteOffset" : 597296
        },
        {
            "buffer" : 0,
            "byteLength" : 3672,
            "byteOffset" : 620720
        },
        {
            "buffer" : 0,
            "byteLength" : 3672,
            "byteOffset" : 624392
        },
        {
            "buffer" : 0,
            "byteLength" : 2448,
            "byteOffset" : 628064
        },
        {
            "buffer" : 0,
            "byteLength" : 648,
            "byteOffset" : 630512
        }
    ],
    "buffers" : [
        {
            "byteLength" : 631160,
            "uri" : "data:application/octet-stream;base64,"
        }
    ]
}
