{
    "asset" : {
        "generator" : "Khronos glTF Blender I/O v1.4.40",
        "version" : "2.0"
    },
    "scene" : 0,
    "scenes" : [
        {
            "name" : "Scene",
            "nodes" : [
                0
            ]
        }
    ],
    "nodes" : [
        {
            "mesh" : 0,
            "name" : "Cube",
            "rotation" : [
                0,
                0.9999992847442627,
                0,
                0.001190856797620654
            ],
            "scale" : [
                0.20000000298023224,
                0.20000000298023224,
                0.20000000298023224
            ],
            "translation" : [
                0,
                0.12999999523162842,
                0
            ]
        }
    ],
    "materials" : [
        {
            "doubleSided" : true,
            "name" : "Material.001",
            "pbrMetallicRoughness" : {
                "baseColorFactor" : [
                    0.1412598341703415,
                    0.1412598341703415,
                    0.1412598341703415,
                    1
                ],
                "metallicFactor" : 0
            }
        },
        {
            "doubleSided" : true,
            "name" : "Material.002",
            "pbrMetallicRoughness" : {
                "baseColorFactor" : [
                    0.1069486066699028,
                    0.3664453327655792,
                    0.3972204327583313,
                    1
                ],
                "metallicFactor" : 0,
                "roughnessFactor" : 0.2694300413131714
            }
        },
        {
            "doubleSided" : true,
            "name" : "Material.008",
            "pbrMetallicRoughness" : {
                "baseColorFactor" : [
                    0.15729722380638123,
                    0.15729722380638123,
                    0.15729722380638123,
                    1
                ],
                "metallicFactor" : 0,
                "roughnessFactor" : 0.5
            }
        },
        {
            "doubleSided" : true,
            "emissiveFactor" : [
                1,
                0,
                0
            ],
            "name" : "Material.009",
            "pbrMetallicRoughness" : {}
        },
        {
            "doubleSided" : true,
            "name" : "Material.026",
            "pbrMetallicRoughness" : {
                "baseColorFactor" : [
                    0.800000011920929,
                    0.800000011920929,
                    0.800000011920929,
                    1
                ],
                "metallicFactor" : 0,
                "roughnessFactor" : 0.5
            }
        },
        {
            "doubleSided" : true,
            "name" : "Material.037",
            "pbrMetallicRoughness" : {
                "baseColorFactor" : [
                    0.038107674568891525,
                    0.5495947599411011,
                    0.6257997155189514,
                    1
                ],
                "metallicFactor" : 0,
                "roughnessFactor" : 0
            }
        }
    ],
    "meshes" : [
        {
            "name" : "Cube.001",
            "primitives" : [
                {
                    "attributes" : {
                        "POSITION" : 0,
                        "NORMAL" : 1,
                        "TEXCOORD_0" : 2
                    },
                    "indices" : 3,
                    "material" : 0
                },
                {
                    "attributes" : {
                        "POSITION" : 4,
                        "NORMAL" : 5,
                        "TEXCOORD_0" : 6
                    },
                    "indices" : 7,
                    "material" : 1
                },
                {
                    "attributes" : {
                        "POSITION" : 8,
                        "NORMAL" : 9,
                        "TEXCOORD_0" : 10
                    },
                    "indices" : 11,
                    "material" : 2
                },
                {
                    "attributes" : {
                        "POSITION" : 12,
                        "NORMAL" : 13,
                        "TEXCOORD_0" : 14
                    },
                    "indices" : 15,
                    "material" : 3
                },
                {
                    "attributes" : {
                        "POSITION" : 16,
                        "NORMAL" : 17,
                        "TEXCOORD_0" : 18
                    },
                    "indices" : 19,
                    "material" : 4
                },
                {
                    "attributes" : {
                        "POSITION" : 20,
                        "NORMAL" : 21,
                        "TEXCOORD_0" : 22
                    },
                    "indices" : 23,
                    "material" : 5
                }
            ]
        }
    ],
    "accessors" : [
        {
            "bufferView" : 0,
            "componentType" : 5126,
            "count" : 3859,
            "max" : [
                1.6973881721496582,
                23.13589096069336,
                1.6971787214279175
            ],
            "min" : [
                -1.6966707706451416,
                -0.589760959148407,
                -1.6954386234283447
            ],
            "type" : "VEC3"
        },
        {
            "bufferView" : 1,
            "componentType" : 5126,
            "count" : 3859,
            "type" : "VEC3"
        },
        {
            "bufferView" : 2,
            "componentType" : 5126,
            "count" : 3859,
            "type" : "VEC2"
        },
        {
            "bufferView" : 3,
            "componentType" : 5123,
            "count" : 6762,
            "type" : "SCALAR"
        },
        {
            "bufferView" : 4,
            "componentType" : 5126,
            "count" : 27308,
            "max" : [
                1.6973881721496582,
                22.52652931213379,
                1.674376130104065
            ],
            "min" : [
                -1.6966707706451416,
                0.21402917802333832,
                -1.6726359128952026
            ],
            "type" : "VEC3"
        },
        {
            "bufferView" : 5,
            "componentType" : 5126,
            "count" : 27308,
            "type" : "VEC3"
        },
        {
            "bufferView" : 6,
            "componentType" : 5126,
            "count" : 27308,
            "type" : "VEC2"
        },
        {
            "bufferView" : 7,
            "componentType" : 5123,
            "count" : 41040,
            "type" : "SCALAR"
        },
        {
            "bufferView" : 8,
            "componentType" : 5126,
            "count" : 2171,
            "max" : [
                1.4197888374328613,
                25.022695541381836,
                1.4203001260757446
            ],
            "min" : [
                -1.4190714359283447,
                -0.42437759041786194,
                -1.4185600280761719
            ],
            "type" : "VEC3"
        },
        {
            "bufferView" : 9,
            "componentType" : 5126,
            "count" : 2171,
            "type" : "VEC3"
        },
        {
            "bufferView" : 10,
            "componentType" : 5126,
            "count" : 2171,
            "type" : "VEC2"
        },
        {
            "bufferView" : 11,
            "componentType" : 5123,
            "count" : 2958,
            "type" : "SCALAR"
        },
        {
            "bufferView" : 12,
            "componentType" : 5126,
            "count" : 738,
            "max" : [
                0.1502615064382553,
                25.04450035095215,
                0.12012950330972672
            ],
            "min" : [
                -0.13166046142578125,
                23.583436965942383,
                -0.4112706184387207
            ],
            "type" : "VEC3"
        },
        {
            "bufferView" : 13,
            "componentType" : 5126,
            "count" : 738,
            "type" : "VEC3"
        },
        {
            "bufferView" : 14,
            "componentType" : 5126,
            "count" : 738,
            "type" : "VEC2"
        },
        {
            "bufferView" : 15,
            "componentType" : 5123,
            "count" : 846,
            "type" : "SCALAR"
        },
        {
            "bufferView" : 16,
            "componentType" : 5126,
            "count" : 24,
            "max" : [
                2.2224533557891846,
                -0.5897604823112488,
                2.222452402114868
            ],
            "min" : [
                -2.222452402114868,
                -0.8412529230117798,
                -2.2224533557891846
            ],
            "type" : "VEC3"
        },
        {
            "bufferView" : 17,
            "componentType" : 5126,
            "count" : 24,
            "type" : "VEC3"
        },
        {
            "bufferView" : 18,
            "componentType" : 5126,
            "count" : 24,
            "type" : "VEC2"
        },
        {
            "bufferView" : 19,
            "componentType" : 5123,
            "count" : 36,
            "type" : "SCALAR"
        },
        {
            "bufferView" : 20,
            "componentType" : 5126,
            "count" : 7754,
            "max" : [
                1.6815581321716309,
                22.932336807250977,
                1.6611355543136597
            ],
            "min" : [
                -1.6808406114578247,
                -0.5315629839897156,
                -1.659395456314087
            ],
            "type" : "VEC3"
        },
        {
            "bufferView" : 21,
            "componentType" : 5126,
            "count" : 7754,
            "type" : "VEC3"
        },
        {
            "bufferView" : 22,
            "componentType" : 5126,
            "count" : 7754,
            "type" : "VEC2"
        },
        {
            "bufferView" : 23,
            "componentType" : 5123,
            "count" : 11568,
            "type" : "SCALAR"
        }
    ],
    "bufferViews" : [
        {
            "buffer" : 0,
            "byteLength" : 46308,
            "byteOffset" : 0
        },
        {
            "buffer" : 0,
            "byteLength" : 46308,
            "byteOffset" : 46308
        },
        {
            "buffer" : 0,
            "byteLength" : 30872,
            "byteOffset" : 92616
        },
        {
            "buffer" : 0,
            "byteLength" : 13524,
            "byteOffset" : 123488
        },
        {
            "buffer" : 0,
            "byteLength" : 327696,
            "byteOffset" : 137012
        },
        {
            "buffer" : 0,
            "byteLength" : 327696,
            "byteOffset" : 464708
        },
        {
            "buffer" : 0,
            "byteLength" : 218464,
            "byteOffset" : 792404
        },
        {
            "buffer" : 0,
            "byteLength" : 82080,
            "byteOffset" : 1010868
        },
        {
            "buffer" : 0,
            "byteLength" : 26052,
            "byteOffset" : 1092948
        },
        {
            "buffer" : 0,
            "byteLength" : 26052,
            "byteOffset" : 1119000
        },
        {
            "buffer" : 0,
            "byteLength" : 17368,
            "byteOffset" : 1145052
        },
        {
            "buffer" : 0,
            "byteLength" : 5916,
            "byteOffset" : 1162420
        },
        {
            "buffer" : 0,
            "byteLength" : 8856,
            "byteOffset" : 1168336
        },
        {
            "buffer" : 0,
            "byteLength" : 8856,
            "byteOffset" : 1177192
        },
        {
            "buffer" : 0,
            "byteLength" : 5904,
            "byteOffset" : 1186048
        },
        {
            "buffer" : 0,
            "byteLength" : 1692,
            "byteOffset" : 1191952
        },
        {
            "buffer" : 0,
            "byteLength" : 288,
            "byteOffset" : 1193644
        },
        {
            "buffer" : 0,
            "byteLength" : 288,
            "byteOffset" : 1193932
        },
        {
            "buffer" : 0,
            "byteLength" : 192,
            "byteOffset" : 1194220
        },
        {
            "buffer" : 0,
            "byteLength" : 72,
            "byteOffset" : 1194412
        },
        {
            "buffer" : 0,
            "byteLength" : 93048,
            "byteOffset" : 1194484
        },
        {
            "buffer" : 0,
            "byteLength" : 93048,
            "byteOffset" : 1287532
        },
        {
            "buffer" : 0,
            "byteLength" : 62032,
            "byteOffset" : 1380580
        },
        {
            "buffer" : 0,
            "byteLength" : 23136,
            "byteOffset" : 1442612
        }
    ],
    "buffers" : [
        {
            "byteLength" : 1465748,
            "uri" : "data:application/octet-stream;base64,"
        }
    ]
}
